HIERARCHY
ROOT Hips
{
 OFFSET 0.000000 0.000000 0.000000
 CHANNELS 6 Xposition Yposition Zposition Yrotation Xrotation Zrotation
 JOINT Chest
 {
  OFFSET 0.000000 10.354800 0.006500
  CHANNELS 3 Yrotation Xrotation Zrotation
  JOINT Chest2
  {
   OFFSET 0.000000 10.435800 -0.013200
   CHANNELS 3 Yrotation Xrotation Zrotation
   JOINT Chest3
   {
    OFFSET 0.000000 10.393700 0.000000
    CHANNELS 3 Yrotation Xrotation Zrotation
    JOINT Chest4
    {
     OFFSET 0.000000 10.383100 0.000000
     CHANNELS 3 Yrotation Xrotation Zrotation
     JOINT Neck
     {
      OFFSET 0.000000 15.694000 0.000000
      CHANNELS 3 Yrotation Xrotation Zrotation
      JOINT Head
      {
       OFFSET 0.000000 9.711000 -0.028000
       CHANNELS 3 Yrotation Xrotation Zrotation
       End Site
       {
        OFFSET 0.000000 18.578700 -0.014800
       }
      }
     }
     JOINT RightCollar
     {
      OFFSET -3.157200 10.367500 0.000000
      CHANNELS 3 Yrotation Xrotation Zrotation
      JOINT RightShoulder
      {
       OFFSET -14.482500 0.000000 0.000000
       CHANNELS 3 Yrotation Xrotation Zrotation
       JOINT RightElbow
       {
        OFFSET 0.000000 -31.707800 0.000000
        CHANNELS 3 Yrotation Xrotation Zrotation
        JOINT RightWrist
        {
         OFFSET 0.000000 -25.659300 0.000000
         CHANNELS 3 Yrotation Xrotation Zrotation
         End Site
         {
          OFFSET 0.000000 -18.994300 0.000000
         }
        }
       }
      }
     }
     JOINT LeftCollar
     {
      OFFSET 3.157200 10.367500 0.000000
      CHANNELS 3 Yrotation Xrotation Zrotation
      JOINT LeftShoulder
      {
       OFFSET 14.482500 0.000000 0.000000
       CHANNELS 3 Yrotation Xrotation Zrotation
       JOINT LeftElbow
       {
        OFFSET 0.000000 -31.707800 0.000000
        CHANNELS 3 Yrotation Xrotation Zrotation
        JOINT LeftWrist
        {
         OFFSET 0.000000 -25.659300 0.000000
         CHANNELS 3 Yrotation Xrotation Zrotation
         End Site
         {
          OFFSET 0.000000 -18.994300 0.000000
         }
        }
       }
      }
     }
    }
   }
  }
 }
 JOINT RightHip
 {
  OFFSET -8.365600 -0.032100 -0.003200
  CHANNELS 3 Yrotation Xrotation Zrotation
  JOINT RightKnee
  {
   OFFSET 0.000000 -43.980000 0.003100
   CHANNELS 3 Yrotation Xrotation Zrotation
   JOINT RightAnkle
   {
    OFFSET 0.000000 -42.882800 0.005200
    CHANNELS 3 Yrotation Xrotation Zrotation
    JOINT RightToe
    {
     OFFSET 0.000000 -4.915500 10.826300
     CHANNELS 3 Yrotation Xrotation Zrotation
     End Site
     {
      OFFSET 0.000000 -1.517500 6.175900
     }
    }
   }
  }
 }
 JOINT LeftHip
 {
  OFFSET 8.365600 -0.032100 -0.003200
  CHANNELS 3 Yrotation Xrotation Zrotation
  JOINT LeftKnee
  {
   OFFSET 0.000000 -43.980000 0.003100
   CHANNELS 3 Yrotation Xrotation Zrotation
   JOINT LeftAnkle
   {
    OFFSET 0.000000 -42.882800 0.005200
    CHANNELS 3 Yrotation Xrotation Zrotation
    JOINT LeftToe
    {
     OFFSET 0.000000 -4.915500 10.826300
     CHANNELS 3 Yrotation Xrotation Zrotation
     End Site
     {
      OFFSET 0.000000 -1.517500 6.175900
     }
    }
   }
  }
 }
}
MOTION
Frames: 16
Frame Time: 0.008333
-9.223283 126.392080 21.750943 170.085086 -18.546715 -4.023254 -0.494896 12.328431 4.047489 -0.070331 0.967814 0.320933 -0.116499 1.647522 0.545560 -0.486436 11.184584 3.673580 1.618510 20.206210 -4.882604 2.866712 -4.116929 -5.637394 1.865613 5.564136 -5.037766 4.564761 -3.601030 -2.500752 -96.571109 -64.740854 124.895605 -18.284523 -20.099614 -39.735437 -1.737582 8.705715 0.679018 13.343348 -4.580632 -5.900935 159.824705 -67.992097 178.198903 18.641439 -0.610046 35.204794 7.472359 -63.106208 -3.910578 -95.547281 78.355607 -89.187055 4.833793 4.019508 -16.634752 -0.001292 -0.004524 -0.000587 -24.346790 -63.403367 9.766338 125.330298 85.261533 118.589145 -4.931922 -23.110597 -0.053602 0.000179 0.000016 0.000081
-9.223873 126.391958 21.750705 170.084054 -18.547496 -4.021517 -0.492974 12.329384 4.044051 -0.070594 0.967810 0.320897 -0.117457 1.647577 0.546083 -0.487950 11.184331 3.673015 1.613062 20.203744 -4.876435 2.841515 -4.128981 -5.616811 1.869497 5.563629 -5.047848 4.561796 -3.606033 -2.492020 -96.611574 -64.746776 124.926135 -18.265133 -20.114815 -39.725793 -1.735557 8.703579 0.681478 13.339805 -4.580720 -5.899343 159.838740 -67.973839 178.175622 18.641142 -0.613585 35.199504 7.473413 -63.105448 -3.911391 -95.543852 78.357633 -89.184307 4.797730 4.018504 -16.631119 -0.003715 -0.003558 -0.001687 -24.335350 -63.402511 9.761492 125.311900 85.259598 118.574650 -4.960865 -23.114253 -0.055874 -0.000913 -0.000974 -0.000415
-9.223123 126.391716 21.751323 170.089978 -18.544346 -4.029457 -0.495891 12.326599 4.049916 -0.069700 0.968166 0.321103 -0.117063 1.647111 0.545641 -0.490045 11.183332 3.674349 1.593067 20.193897 -4.867334 2.834966 -4.131222 -5.614934 1.868998 5.563501 -5.051516 4.560028 -3.627582 -2.501585 -96.772903 -64.766372 125.053717 -18.297515 -20.087295 -39.723886 -1.734788 8.700564 0.680311 13.322520 -4.587190 -5.893480 159.857454 -67.966427 178.158327 18.646780 -0.617228 35.202192 7.450913 -63.107402 -3.894909 -95.534073 78.359226 -89.176960 4.801828 4.016685 -16.633969 -0.003063 -0.004312 -0.001391 -24.348459 -63.402869 9.779222 125.322594 85.260847 118.584485 -4.965169 -23.113159 -0.058680 -0.000391 -0.001725 -0.000178
-9.222874 126.391401 21.751825 170.088224 -18.541785 -4.031133 -0.493677 12.323754 4.051963 -0.068695 0.968579 0.321272 -0.117147 1.646929 0.545643 -0.490471 11.182711 3.674643 1.583369 20.187271 -4.864288 2.828062 -4.131462 -5.611859 1.870267 5.564517 -5.057070 4.559247 -3.649405 -2.509852 -96.817618 -64.770434 125.085304 -18.265780 -20.109867 -39.720528 -1.731199 8.696588 0.678618 13.285207 -4.599825 -5.881656 159.845506 -67.943052 178.160006 18.640071 -0.603212 35.249213 7.445944 -63.109226 -3.889742 -95.544622 78.373364 -89.189812 4.815474 4.008753 -16.640143 -0.000058 -0.004661 -0.000026 -24.350445 -63.402442 9.790449 125.241154 85.258730 118.493565 -4.960424 -23.105595 -0.057040 -0.001895 -0.001864 -0.000860
-9.222206 126.391179 21.752128 170.082435 -18.541223 -4.032452 -0.489724 12.321981 4.054438 -0.070311 0.967141 0.321122 -0.116585 1.646417 0.546019 -0.486103 11.180169 3.677903 1.575797 20.188911 -4.866521 2.827511 -4.129990 -5.611601 1.864027 5.568820 -5.062532 4.556762 -3.671698 -2.513130 -96.805515 -64.774905 125.072708 -18.229386 -20.133409 -39.722792 -1.728088 8.698965 0.672994 13.270639 -4.601693 -5.877624 159.820802 -67.931099 178.167260 18.630344 -0.605797 35.252316 7.443126 -63.109726 -3.882704 -95.549890 78.375833 -89.197264 4.831901 4.004402 -16.642368 0.000742 -0.004681 0.000337 -24.350785 -63.399712 9.799062 125.216061 85.259669 118.464857 -4.930678 -23.099105 -0.065021 0.000612 -0.001635 0.000278
-9.221312 126.390947 21.752549 170.077363 -18.540531 -4.034116 -0.489354 12.314901 4.057643 -0.066846 0.970803 0.320276 -0.116123 1.645439 0.545438 -0.483797 11.171205 3.677611 1.568650 20.197002 -4.865203 2.809913 -4.137354 -5.604782 1.865572 5.581406 -5.061568 4.571188 -3.717178 -2.529653 -96.767680 -64.771130 125.002963 -18.198895 -20.153437 -39.727136 -1.725625 8.708096 0.670058 13.257651 -4.603084 -5.873619 159.782900 -67.921203 178.185076 18.623142 -0.606010 35.249144 7.434665 -63.111026 -3.871358 -95.558443 78.374065 -89.209132 4.860580 4.001015 -16.647535 0.002818 -0.005848 0.001280 -24.352855 -63.397918 9.805959 125.134718 85.253760 118.382224 -4.907170 -23.089583 -0.075079 0.002900 -0.001574 0.001317
-9.222410 126.390693 21.752306 170.077017 -18.541646 -4.024601 -0.492420 12.314007 4.047862 -0.069464 0.967848 0.321054 -0.115583 1.644664 0.545490 -0.480645 11.174927 3.676864 1.555456 20.186878 -4.865588 2.773191 -4.159284 -5.600718 1.876905 5.584551 -5.058905 4.566570 -3.728922 -2.536709 -96.943406 -64.792488 125.153967 -18.222912 -20.128265 -39.746157 -1.723617 8.704269 0.665142 13.244854 -4.606189 -5.868997 159.748971 -67.918784 178.209218 18.624940 -0.604704 35.242997 7.449062 -63.106341 -3.894012 -95.563524 78.378402 -89.212828 4.822302 3.997898 -16.637603 -0.003578 -0.001664 -0.001624 -24.334829 -63.399666 9.789013 125.067872 85.255951 118.320544 -4.956469 -23.060385 -0.071559 0.000254 -0.000289 0.000115
-9.221485 126.390479 21.752854 170.075809 -18.541405 -4.025662 -0.491523 12.311979 4.049030 -0.066867 0.962763 0.324025 -0.116258 1.640539 0.544680 -0.482051 11.176865 3.675487 1.541327 20.180388 -4.867770 2.779486 -4.150485 -5.601832 1.879458 5.595055 -5.058253 4.571089 -3.741503 -2.541965 -97.081778 -64.803951 125.266923 -18.229689 -20.111585 -39.756671 -1.725320 8.706285 0.659347 13.225339 -4.611095 -5.867630 159.760891 -67.925979 178.210124 18.640772 -0.603160 35.207527 7.443627 -63.104180 -3.881567 -95.553719 78.372620 -89.204478 4.806614 3.994123 -16.633872 -0.002879 -0.000056 -0.001307 -24.346467 -63.394458 9.804924 125.047080 85.262319 118.294381 -4.963888 -23.048385 -0.067380 0.000726 0.002259 0.000330
-9.222100 126.390133 21.753473 170.087690 -18.539108 -4.021875 -0.500090 12.307329 4.046931 -0.070601 0.964655 0.320411 -0.116031 1.636054 0.543974 -0.491190 11.173423 3.674661 1.509046 20.146864 -4.877597 2.783669 -4.140279 -5.601795 1.877389 5.604207 -5.054764 4.591840 -3.782421 -2.558796 -97.098404 -64.805102 125.253459 -18.237020 -20.097144 -39.761754 -1.718834 8.712283 0.655241 13.181992 -4.626871 -5.884380 159.770078 -67.935006 178.213337 18.684040 -0.592138 35.171779 7.447222 -63.104746 -3.897259 -95.568997 78.371751 -89.221287 4.814679 3.990084 -16.634781 -0.002181 -0.001436 -0.000990 -24.345735 -63.398023 9.792642 125.054985 85.262180 118.301288 -4.967138 -23.040192 -0.063226 0.000860 0.002346 0.000391
-9.221495 126.390159 21.753690 170.093180 -18.541900 -4.021932 -0.497036 12.297097 4.048706 -0.078272 0.970288 0.317964 -0.113042 1.635492 0.545465 -0.498306 11.168679 3.671980 1.502323 20.147623 -4.878682 2.721928 -4.202601 -5.606538 1.875134 5.616383 -5.051535 4.596689 -3.788138 -2.561862 -97.118611 -64.806680 125.267934 -18.194861 -20.135454 -39.755192 -1.716604 8.722474 0.653724 13.167979 -4.629655 -5.885846 159.696885 -67.931039 178.262126 18.692656 -0.589817 35.178782 7.436083 -63.102600 -3.890755 -95.602002 78.369450 -89.253830 4.800606 3.982607 -16.637695 -0.002470 -0.001695 -0.001121 -24.344920 -63.394451 9.787220 125.074590 85.261899 118.320899 -4.969826 -23.039671 -0.061565 0.000752 0.002101 0.000341
-9.221620 126.390501 21.752909 170.111217 -18.549529 -4.020837 -0.512670 12.298887 4.043025 -0.073086 0.970515 0.320079 -0.117287 1.632614 0.543758 -0.504225 11.159800 3.670042 1.494357 20.154217 -4.880949 2.693765 -4.229263 -5.612327 1.870167 5.636893 -5.047774 4.587161 -3.814372 -2.570207 -97.188434 -64.808121 125.330856 -18.176182 -20.144679 -39.754976 -1.710839 8.741749 0.638086 13.146011 -4.638656 -5.874486 159.527244 -67.924644 178.392548 18.664049 -0.589626 35.200913 7.426075 -63.091589 -3.898192 -95.614973 78.371342 -89.264000 4.789167 3.978804 -16.642701 -0.001116 -0.003235 -0.000507 -24.340549 -63.387431 9.764821 125.141561 85.271080 118.387202 -4.967536 -23.040096 -0.058276 -0.000585 0.002357 -0.000265
-9.220974 126.390654 21.753285 170.111554 -18.553016 -4.019335 -0.514890 12.297506 4.041608 -0.068229 0.967905 0.318673 -0.122243 1.634619 0.545024 -0.506897 11.155969 3.671246 1.468146 20.129356 -4.896382 2.704037 -4.215630 -5.611530 1.873401 5.652244 -5.039532 4.569387 -3.861275 -2.589319 -97.210470 -64.805149 125.353317 -18.163817 -20.140619 -39.763366 -1.699170 8.758177 0.625860 13.100171 -4.646269 -5.887714 159.535210 -67.921994 178.390156 18.651534 -0.588807 35.212490 7.429526 -63.090791 -3.899479 -95.661059 78.367739 -89.308436 4.797454 3.971931 -16.647025 0.000325 -0.004616 0.000147 -24.328953 -63.381897 9.752543 125.161570 85.275609 118.411722 -4.967748 -23.051724 -0.056604 -0.000888 0.002039 -0.000403
-9.220511 126.390716 21.754113 170.111366 -18.553799 -4.017070 -0.516427 12.296766 4.039479 -0.077281 0.956906 0.325230 -0.113464 1.645454 0.538197 -0.514754 11.146637 3.675696 1.463323 20.130328 -4.907288 2.695442 -4.223019 -5.614891 1.865517 5.681796 -5.029123 4.568826 -3.907129 -2.608911 -97.282191 -64.813517 125.417225 -18.160677 -20.129233 -39.767542 -1.685053 8.777258 0.611555 13.076371 -4.649297 -5.897944 159.555908 -67.917078 178.368291 18.654846 -0.587880 35.215368 7.434889 -63.090474 -3.903489 -95.680591 78.368857 -89.330226 4.798667 3.966389 -16.650151 -0.001776 -0.004177 -0.000806 -24.321244 -63.381056 9.740769 125.168165 85.274130 118.422899 -4.954955 -23.064972 -0.060239 -0.000771 0.000718 -0.000350
-9.219557 126.390885 21.755009 170.109135 -18.554633 -4.016982 -0.520527 12.293081 4.043614 -0.073956 0.958450 0.323366 -0.117449 1.641997 0.540134 -0.518612 11.143599 3.674931 1.446602 20.119383 -4.922247 2.641131 -4.262320 -5.650555 1.863981 5.703223 -5.025927 4.566352 -3.936786 -2.616678 -97.525344 -64.833669 125.623763 -18.220078 -20.053167 -39.777824 -1.675393 8.790558 0.602296 13.060917 -4.641914 -5.915773 159.522328 -67.907770 178.379256 18.669191 -0.585350 35.224306 7.432525 -63.090055 -3.897140 -95.692936 78.357709 -89.341688 4.810129 3.964073 -16.657773 0.000212 -0.003703 0.000096 -24.317599 -63.380933 9.737497 125.225620 85.271652 118.484709 -4.942347 -23.075849 -0.065418 -0.000397 -0.001027 -0.000180
-9.219727 126.391059 21.755600 170.113640 -18.555013 -4.012847 -0.529824 12.287405 4.044355 -0.072746 0.961260 0.319679 -0.130132 1.631216 0.548100 -0.523172 11.148861 3.667366 1.407454 20.087349 -4.956269 2.659655 -4.252860 -5.668271 1.872034 5.725932 -5.023018 4.567294 -3.957237 -2.627094 -97.577066 -64.839489 125.667335 -18.183856 -20.071099 -39.774513 -1.656106 8.812284 0.591560 13.050820 -4.647174 -5.926021 159.452866 -67.904039 178.424929 18.659556 -0.582388 35.238046 7.437091 -63.087656 -3.913263 -95.696036 78.359061 -89.344755 4.827622 3.964396 -16.661913 -0.000173 -0.003171 -0.000079 -24.311931 -63.381895 9.724880 125.265693 85.270757 118.527298 -4.936949 -23.082402 -0.069136 -0.000078 -0.001433 -0.000035
-9.219193 126.391311 21.756437 170.113723 -18.554487 -4.011837 -0.544853 12.280749 4.049734 -0.067894 0.963095 0.314450 -0.129545 1.633310 0.548666 -0.533368 11.145245 3.666730 1.399992 20.078071 -4.980479 2.656364 -4.265006 -5.693565 1.885294 5.740278 -5.025309 4.563231 -3.970739 -2.631253 -97.737673 -64.850009 125.800691 -18.173034 -20.057764 -39.776094 -1.636843 8.832607 0.580069 13.043089 -4.652022 -5.936686 159.444261 -67.900784 178.424645 18.670500 -0.571852 35.241237 7.442680 -63.089307 -3.919109 -95.705447 78.357909 -89.353213 4.831064 3.965739 -16.663206 0.000823 -0.004136 0.000374 -24.309246 -63.379893 9.721272 125.250667 85.269789 118.513438 -4.918978 -23.096148 -0.077341 0.001752 -0.002421 0.000796
